<svg xmlns="http://www.w3.org/2000/svg"><style>:root svg:not(:target){display:none}</style><svg viewBox="0 0 20 20" fill="none" id="burger-close"><path d="m19 1-18 18m0-18 18 18" stroke="#8D8D8D" stroke-width="2"></path></svg><svg viewBox="0 0 24 20" fill="none" id="burger"><path d="M0 2h24m-24 8h24m-24 8h24" stroke="#8D8D8D" stroke-width="2.167"></path></svg><svg viewBox="0 0 24 24" fill="none" id="cart-2"><g clip-path="url(#cart-2_0)" fill="#8D8D8D"><path d="M18.04 20c-1.09 0-1.97.9-1.97 2s.88 2 1.97 2c1.08 0 1.96-.9 1.96-2s-.88-2-1.96-2Zm-7.08 0c-1.08 0-1.96.9-1.96 2s.88 2 1.96 2c1.09 0 1.97-.9 1.97-2s-.88-2-1.97-2Z"></path><path fill-rule="evenodd" clip-rule="evenodd" d="M18.04 21a.98.98 0 0 0-.97 1c0 .57.45 1 .97 1 .51 0 .96-.43.96-1 0-.57-.45-1-.96-1Zm-7.08 0a.98.98 0 0 0-.96 1c0 .57.45 1 .96 1 .52 0 .97-.43.97-1 0-.57-.45-1-.97-1Zm5.11 1c0-1.1.88-2 1.97-2 1.08 0 1.96.9 1.96 2s-.88 2-1.96 2c-1.09 0-1.97-.9-1.97-2Zm-7.07 0c0-1.1.88-2 1.96-2 1.09 0 1.97.9 1.97 2s-.88 2-1.97 2c-1.08 0-1.96-.9-1.96-2Zm-9-21a1 1 0 0 1 1-1h4.68a1 1 0 0 1 .97.74l1.29 4.88h15.06a1 1 0 0 1 .94 1.34l-3.74 10.3a1 1 0 0 1-.94.65h-9.37a1 1 0 0 1-.96-.74l-4.02-15.17h-3.91a1 1 0 0 1-1-1Zm8.47 6.62 2.2 8.3h7.88l3.02-8.3h-13.1Z"></path></g><defs><clipPath id="cart-2_0"><path fill="#fff" d="M0 0h24v24h-24z"></path></clipPath></defs></svg><svg viewBox="0 0 24 24" fill="none" id="cart"><path fill="#fff" d="M0 0h24v24h-24z"></path><path d="M5.33 6v-2.4c0-.7.23-1.38.65-1.96a3.92 3.92 0 0 1 1.72-1.33 4.4 4.4 0 0 1 4.3.6 4.4 4.4 0 0 1 4.3-.6 4 4 0 0 1 1.72 1.33c.42.58.65 1.26.65 1.96v2.4h2c.53 0 1.04.19 1.41.53.38.33.59.8.59 1.27v12a4 4 0 0 1-1.37 2.97 4.94 4.94 0 0 1-3.3 1.23h-11.33c-1.42 0-2.77-.5-3.77-1.4a4.6 4.6 0 0 1-1.57-3.4v-11.4c0-.48.21-.94.59-1.27.37-.34.88-.53 1.41-.53h2Zm8.85 16.2a3.9 3.9 0 0 1-.83-2.4v-12h-10.02v11.4c0 .4.09.78.26 1.15a3 3 0 0 0 .72.97 3.66 3.66 0 0 0 2.36.88h7.51Zm-2.85-16.2v-2.4c0-.48-.2-.94-.58-1.27a2.12 2.12 0 0 0-1.42-.53c-.53 0-1.04.19-1.41.53-.38.33-.59.8-.59 1.27v2.4h4Zm2 0h3.34v-2.4c0-.37-.13-.73-.37-1.04a2 2 0 0 0-.96-.65c-.38-.13-.8-.14-1.2-.05-.4.1-.75.3-1.01.6.13.35.2.74.2 1.14v2.4Zm2.02 13.8c0 .64.28 1.25.78 1.7.5.45 1.17.7 1.88.7.7 0 1.38-.25 1.88-.7.5-.45.78-1.06.78-1.7v-12h-5.32v12Z" fill="#8D8D8D"></path></svg><svg viewBox="0 0 19 18" fill="none" id="heart"><path d="M12.99 0c-.73 0-1.47.16-2.2.48l-.03.01-.03.02a5.5 5.5 0 0 0-1.26.95 5.3 5.3 0 0 0-7.4.12l-.02.02-.02.02c-1.92 2.18-1.88 5.52-.73 8.17l.01.02.01.02c1.36 2.72 3.9 5.03 6.2 6.93l.01.01c.15.12.4.36.7.6.3.24.63.5 1.11.6l.11.03.11-.01c.51-.05.71-.25 1.05-.48.34-.23.7-.52 1.1-.84.74-.63 1.52-1.35 2.04-1.86l.02-.03c1.08-1 2.15-2.15 3.06-3.5v-.01a9.1 9.1 0 0 0 1.31-7.72l-.01-.05-.02-.05a5.5 5.5 0 0 0-5.12-3.45Zm.02 1.72a3.82 3.82 0 0 1 3.62 2.42c.63 2.17.09 4.4-1.08 6.1a18.58 18.58 0 0 1-2.84 3.24l-.01.02-.02.01a26.94 26.94 0 0 1-2.92 2.53c-.1.07-.2.12-.27.15a2.43 2.43 0 0 1-.3-.2c-.22-.18-.45-.4-.7-.6l-.01-.02c-2.24-1.84-4.6-4.08-5.74-6.34-.92-2.13-.88-4.68.43-6.18a3.79 3.79 0 0 1 5.7.41l.64.85.62-.87c.35-.5.78-.88 1.3-1.17a4.36 4.36 0 0 1 1.58-.35Z" fill="#8D8D8D"></path></svg><svg viewBox="0 0 24 24" fill="none" id="login"><path fill-rule="evenodd" clip-rule="evenodd" d="M14.16 7.1a2.16 2.16 0 0 0-2.57-2.13c-.41.07-.85.35-1.2.8-.36.46-.55 1-.55 1.48v1c0 .47.2 1.02.54 1.47.36.46.8.74 1.21.82 1.38.24 2.57-.8 2.57-2.13v-1.32Zm-2.97-4.38a4.45 4.45 0 0 1 5.26 4.37v1.32a4.45 4.45 0 0 1-5.27 4.37 4.77 4.77 0 0 1-3.63-4.53v-1c0-1.04.4-2.07 1.02-2.87a4.3 4.3 0 0 1 2.62-1.66Z" fill="#8D8D8D"></path><path fill-rule="evenodd" clip-rule="evenodd" d="M12 2.29a9.71 9.71 0 1 0 0 19.42 9.71 9.71 0 0 0 0-19.42Zm-12 9.71a12 12 0 1 1 24 0 12 12 0 0 1-24 0Z" fill="#8D8D8D"></path><path fill-rule="evenodd" clip-rule="evenodd" d="M12 16.45a6.9 6.9 0 0 0-6.36 3.95 1.14 1.14 0 0 1-2.09-.92 9.19 9.19 0 0 1 8.45-5.32 9.19 9.19 0 0 1 8.45 5.32 1.14 1.14 0 1 1-2.1.92 6.9 6.9 0 0 0-6.35-3.95Z" fill="#8D8D8D"></path></svg><svg viewBox="0 0 148 14" fill="none" id="logo"><path d="M5 2.94c-.56 0-1.11.08-1.65.24-.55.15-1.08.34-1.6.56l-.84-2.12a10.62 10.62 0 0 1 4.14-.87c.92 0 1.73.14 2.43.43.72.28 1.32.7 1.81 1.25.5.55.88 1.22 1.13 2.02.27.79.4 1.69.4 2.7 0 1.27-.21 2.39-.64 3.35a4.86 4.86 0 0 1-1.98 2.22 6.5 6.5 0 0 1-3.4.79 10.33 10.33 0 0 1-3.67-.64v-2.21c.67.2 1.28.37 1.83.48.57.12 1.13.18 1.69.18.53 0 1-.07 1.4-.2a2.62 2.62 0 0 0 1.73-1.58c.16-.4.25-.87.28-1.39h-5.4v-2.15h5.38c-.01-.49-.1-.92-.24-1.29a2.64 2.64 0 0 0-1.59-1.56 3.3 3.3 0 0 0-1.21-.21Zm19.7 10.4h-2.62v-10.23h-3.04a2271.74 2271.74 0 0 0-.73 5.48l-.28 1.51a7.63 7.63 0 0 1-.61 1.84c-.24.51-.59.9-1.03 1.17-.42.26-.99.4-1.68.4a4.01 4.01 0 0 1-1.25-.2v-2.15l.43.12c.15.04.31.05.49.05.23 0 .42-.07.57-.22.15-.15.29-.4.4-.77a26.95 26.95 0 0 0 .56-2.71 347.95 347.95 0 0 0 .95-6.71h7.84v12.41Zm12.1 0h-7.14v-12.42h7.15v2.16h-4.52v2.73h4.2v2.15h-4.2v3.2h4.52v2.17Zm14.53 0h-2.99l-4.5-6.3v6.3h-2.62v-12.42h2.62v6.02l4.45-6.02h2.8l-4.52 5.96 4.76 6.45Zm8.17 0h-2.62v-10.23h-3.37v-2.19h9.37v2.19h-3.38v10.22Zm11.08-12.42c1.6 0 2.76.35 3.5 1.04a3.66 3.66 0 0 1 1.1 2.84 4.8 4.8 0 0 1-.24 1.56c-.16.49-.43.93-.81 1.32a3.8 3.8 0 0 1-1.48.9 6.8 6.8 0 0 1-2.28.34h-1.13v4.41h-2.62v-12.41h3.96Zm-.14 2.16h-1.2v3.68h.87c.5 0 .93-.06 1.29-.19s.63-.33.83-.6c.2-.29.3-.65.3-1.09 0-.61-.17-1.06-.5-1.35-.34-.3-.87-.45-1.59-.45Zm20.18 4.03c0 .96-.12 1.84-.36 2.62-.23.78-.6 1.45-1.08 2.02a4.5 4.5 0 0 1-1.84 1.3c-.74.3-1.62.46-2.63.46-1 0-1.89-.15-2.64-.45a4.97 4.97 0 0 1-1.84-1.3 5.79 5.79 0 0 1-1.08-2.04 9.29 9.29 0 0 1-.35-2.63c0-1.28.21-2.4.63-3.35a4.82 4.82 0 0 1 1.95-2.21c.88-.53 2-.8 3.35-.8s2.45.27 3.32.8a4.7 4.7 0 0 1 1.93 2.22c.43.95.64 2.07.64 3.36Zm-9.05 0c0 .87.1 1.62.33 2.24a3 3 0 0 0 1.02 1.45c.47.33 1.06.5 1.8.5.75 0 1.35-.17 1.8-.5.47-.34.8-.82 1.01-1.45.22-.62.33-1.37.33-2.24 0-1.31-.24-2.34-.73-3.08-.49-.74-1.29-1.11-2.4-1.11a3 3 0 0 0-1.8.5 2.9 2.9 0 0 0-1.03 1.45 6.78 6.78 0 0 0-.33 2.24Zm18.72-4.17a2.73 2.73 0 0 0-2.31 1.15c-.27.35-.47.8-.61 1.32a7.4 7.4 0 0 0-.2 1.75c0 .88.11 1.64.32 2.26.22.62.56 1.09 1.03 1.41.46.32 1.05.49 1.77.49.51 0 1.01-.06 1.51-.18.51-.11 1.06-.28 1.65-.48v2.2a8.86 8.86 0 0 1-3.4.65 5.87 5.87 0 0 1-3.17-.79 4.74 4.74 0 0 1-1.82-2.22 8.8 8.8 0 0 1-.6-3.36c0-.93.13-1.8.39-2.57a5.1 5.1 0 0 1 2.94-3.36 7.18 7.18 0 0 1 4.35-.23c.62.16 1.22.37 1.78.64l-.85 2.13c-.46-.22-.93-.4-1.4-.57a4.14 4.14 0 0 0-1.38-.24Zm7.63-2.02h2.36v6a29.42 29.42 0 0 1-.05 2.03 84.02 84.02 0 0 1-.07 1.4h.05l5.74-9.43h3.15v12.41h-2.35v-5.96c0-.31 0-.65.02-1.03 0-.38.02-.74.03-1.1l.05-.9c.03-.26.04-.44.06-.52h-.07l-5.76 9.51h-3.16v-12.41Zm20.92 12.41h-2.63v-10.22h-3.37v-2.19h9.37v2.19h-3.37v10.22Zm7.1-12.41h2.37v6l-.01.97-.04 1.06a84.02 84.02 0 0 1-.07 1.4h.05l5.74-9.43h3.15v12.41h-2.35v-5.96c0-.31 0-.65.02-1.03l.03-1.1c.03-.34.04-.64.05-.9l.06-.52h-.07l-5.76 9.51h-3.16v-12.41Z" fill="#E11C4B"></path></svg><svg viewBox="0 0 20 12" fill="none" id="mail"><path d="m4.38 8.22-3.17 2.85c-.12-.22-.2-.5-.2-.82v-9.34l5.73 5.18m6.18.3 6.08-5.5v9.36c0 .3-.07.58-.2.8l-4.42-3.96m-13.14-6.33-.03-.01m5.53 5.34 1.61 1.45.26.2c.88.64 1.9.64 2.77 0l.25-.2 1.62-1.46" stroke="#8D8D8D" stroke-miterlimit="10" stroke-linecap="round" stroke-linejoin="round"></path><path d="m14.35 7.07 4.45 3.98c-.15.27-.38.45-.64.45h-16.3c-.26 0-.5-.17-.65-.43l4.35-3.92" stroke="#8D8D8D" stroke-miterlimit="10" stroke-linecap="round" stroke-linejoin="round"></path><path d="M1.9 11.5s-1 .05-.9-1.58m13.97-9.42h3.41c.22 0 .42.12.57.32a.5.5 0 0 1 .05.07l-5.75 5.19-1.62 1.46-.25.2c-.87.64-1.9.64-2.77 0a2.15 2.15 0 0 1-.26-.2l-1.6-1.45-5.74-5.18.05-.07c.15-.21.35-.34.58-.34h13.33Z" stroke="#8D8D8D" stroke-miterlimit="10" stroke-linecap="round" stroke-linejoin="round"></path></svg><svg viewBox="0 0 18 24" fill="none" id="map"><path d="M8.9 22.95c-1.24-1.8-2.29-3.3-3.18-4.56a96.2 96.2 0 0 1-3.38-4.99 7.19 7.19 0 0 1-1.34-4.4 8 8 0 1 1 16 0 7.19 7.19 0 0 1-1.34 4.4 96.22 96.22 0 0 1-3.38 5 644.3 644.3 0 0 0-3.18 4.55.13.13 0 0 1-.2 0l-.82.57.82-.57Zm.1-9.2a4.75 4.75 0 1 0 0-9.5 4.75 4.75 0 0 0 0 9.5Z" stroke="#8D8D8D" stroke-width="2"></path></svg><svg viewBox="0 0 18 18" fill="none" id="next"><circle cx="9" cy="9" r="8.5" fill="#fff" stroke="#8D8D8D"></circle><path d="m8.23 6.94 2.06 1.93-2.06 1.93" stroke="#8D8D8D" stroke-linecap="round"></path></svg><svg viewBox="0 0 18 19" fill="none" id="promotion"><path d="M0 4.12c0-1.07.4-1.94 1.18-2.61a4.58 4.58 0 0 1 3.09-1.01c1.29 0 2.33.33 3.11 1a3.31 3.31 0 0 1 1.18 2.68v.87c0 1.08-.4 1.95-1.18 2.6-.78.66-1.81.99-3.09.99a4.73 4.73 0 0 1-3.11-.99 3.33 3.33 0 0 1-1.18-2.68v-.85Zm2.6.93c0 .48.15.86.46 1.16.32.29.73.43 1.23.43s.91-.14 1.2-.44c.3-.3.46-.7.46-1.2v-.88c0-.48-.15-.87-.45-1.17-.3-.3-.71-.44-1.23-.44-.5 0-.9.15-1.2.44-.32.3-.47.7-.47 1.22v.88Zm6.83 8.92c0-1.09.4-1.96 1.19-2.61.8-.67 1.82-1 3.09-1 1.28 0 2.31.33 3.1.99.8.64 1.19 1.54 1.19 2.69v.86c0 1.08-.39 1.95-1.16 2.61-.78.66-1.82.99-3.1.99-1.3 0-2.35-.33-3.13-1a3.3 3.3 0 0 1-1.18-2.64v-.9Zm2.6.93c0 .45.16.82.48 1.14.33.3.74.46 1.22.46 1.1 0 1.66-.54 1.66-1.62v-.91c0-.48-.16-.87-.46-1.16-.31-.3-.72-.44-1.22-.44s-.92.15-1.22.44c-.3.3-.46.69-.46 1.2v.9Zm-6.96 2.05-1.91-.91 9.63-13.69 1.9.92-9.62 13.68Z" fill="#E11C4B"></path></svg><svg viewBox="0 0 18 18" fill="none" id="search"><path d="M7.7 15.4c1.7 0 3.36-.58 4.71-1.63l4.23 4.23 1.36-1.36-4.23-4.23a7.7 7.7 0 1 0-13.77-4.71 7.7 7.7 0 0 0 7.7 7.7Zm0-13.48a5.78 5.78 0 1 1-.01 11.56 5.78 5.78 0 0 1 0-11.56Z" fill="#E11C4B"></path></svg><svg viewBox="0 0 24 24" fill="none" id="shop"><path d="M23.1 4.8v-3.84a.96.96 0 0 0-.96-.96h-20.28a.96.96 0 0 0-.96.96v3.84c-.5.03-.9.45-.9.96v3.95a5.31 5.31 0 0 0 .9 2.98v10.35c0 .53.43.96.96.96h20.28c.53 0 .96-.43.96-.96v-10.35a5.26 5.26 0 0 0 .9-2.98v-3.95c0-.51-.4-.93-.9-.96Zm-20.04-2.64h17.88v2.64h-17.88v-2.64Zm10.86 19.68h-3.84v-3.12h3.84v3.12Zm7.02 0h-5.1v-4.08a.96.96 0 0 0-.96-.96h-5.76a.96.96 0 0 0-.96.96v4.08h-5.1v-7.26l.27.12a5.4 5.4 0 0 0 5.39-.67h.01a5.42 5.42 0 0 0 5.39.67 5.49 5.49 0 0 0 1.18-.67 5.42 5.42 0 0 0 5.38.67l.27-.12v7.26h-.01Zm.9-12.13a3.29 3.29 0 0 1-6.13 1.6.48.48 0 0 0-.42-.24h-.02c-.17 0-.33.1-.42.24a3.28 3.28 0 0 1-2.85 1.65 3.28 3.28 0 0 1-2.85-1.64.5.5 0 0 0-.86 0 3.29 3.29 0 0 1-6.13-1.6v-2.75l.02-.01h19.64l.02.01v2.74Z" fill="#8D8D8D"></path></svg><svg viewBox="0 0 18 18" fill="none" id="tel"><path d="m11.94 13.29.24.03.17-.17 1.55-1.55a1.02 1.02 0 0 1 1.09-.23l1.88.76a1 1 0 0 1 .63.92v3.46a1 1 0 0 1-1.05.99c-6.45-.4-10.3-3.33-12.6-6.65a20.97 20.97 0 0 1-3.34-9.24 1 1 0 0 1 1-1.11h3.34c.2 0 .4.06.56.17l.28-.41-.28.41a1 1 0 0 1 .36.46l.76 1.89a1 1 0 0 1-.22 1.08l-1.55 1.55-.18.18.04.24.5-.07-.5.08v.02a3.68 3.68 0 0 0 .06.27 10.19 10.19 0 0 0 1.2 3 7.99 7.99 0 0 0 6.06 3.92Z" stroke="#8D8D8D"></path></svg><svg viewBox="0 0 18 18" fill="none" id="telegram"><path d="m15.5 2.79-13.3 5.13c-.9.36-.9.87-.17 1.1l3.42 1.06 7.9-4.99c.37-.22.71-.1.43.15l-6.4 5.77-.23 3.52c.34 0 .5-.16.69-.34l1.66-1.61 3.45 2.54c.63.35 1.09.17 1.25-.59l2.26-10.67c.23-.93-.35-1.35-.96-1.07Z" fill="#8D8D8D"></path></svg><svg viewBox="0 0 18 18" fill="none" id="vk"><path d="M16.18 5.14c.1-.35 0-.6-.5-.6h-1.64a.71.71 0 0 0-.71.46s-.84 2.04-2.02 3.36c-.39.39-.56.5-.77.5-.1 0-.25-.11-.25-.46v-3.26c0-.42-.13-.6-.47-.6h-2.59c-.26 0-.42.19-.42.37 0 .4.6.5.66 1.6v2.43c0 .53-.1.63-.3.63-.57 0-1.92-2.05-2.73-4.4-.15-.45-.31-.63-.73-.63h-1.65c-.47 0-.56.22-.56.46 0 .44.56 2.6 2.6 5.46 1.35 1.95 3.27 3 5.01 3 1.05 0 1.17-.23 1.17-.64v-1.47c0-.47.1-.56.44-.56.24 0 .66.12 1.63 1.06 1.12 1.11 1.3 1.61 1.93 1.61h1.64c.47 0 .7-.23.57-.7a7.04 7.04 0 0 0-1.39-1.92c-.38-.46-.95-.94-1.13-1.19-.24-.31-.17-.45 0-.73 0 0 2-2.82 2.21-3.78Z" fill="#8D8D8D"></path></svg><svg viewBox="0 0 18 18" fill="none" id="youtube"><path d="M16.55 5.2a1.97 1.97 0 0 0-1.4-1.39c-1.22-.33-6.15-.33-6.15-.33s-4.93 0-6.15.33a1.97 1.97 0 0 0-1.4 1.4c-.32 1.22-.32 3.79-.32 3.79s0 2.57.32 3.8a2 2 0 0 0 1.4 1.39c1.22.33 6.15.33 6.15.33s4.93 0 6.15-.33a1.97 1.97 0 0 0 1.4-1.4c.32-1.22.32-3.79.32-3.79s0-2.57-.32-3.8Zm-9.11 6.16v-4.72l4.07 2.34-4.07 2.38Z" fill="#8D8D8D"></path></svg></svg>