<svg viewBox="0 0 24 24" fill="none" xmlns="http://www.w3.org/2000/svg"><path fill="#fff" d="M0 0h24v24h-24z"/><path d="M5.33 6v-2.4c0-.7.23-1.38.65-1.96a3.92 3.92 0 0 1 1.72-1.33 4.4 4.4 0 0 1 4.3.6 4.4 4.4 0 0 1 4.3-.6 4 4 0 0 1 1.72 1.33c.42.58.65 1.26.65 1.96v2.4h2c.53 0 1.04.19 1.41.53.38.33.59.8.59 1.27v12a4 4 0 0 1-1.37 2.97 4.94 4.94 0 0 1-3.3 1.23h-11.33c-1.42 0-2.77-.5-3.77-1.4a4.6 4.6 0 0 1-1.57-3.4v-11.4c0-.48.21-.94.59-1.27.37-.34.88-.53 1.41-.53h2Zm8.85 16.2a3.9 3.9 0 0 1-.83-2.4v-12h-10.02v11.4c0 .4.09.78.26 1.15a3 3 0 0 0 .72.97 3.66 3.66 0 0 0 2.36.88h7.51Zm-2.85-16.2v-2.4c0-.48-.2-.94-.58-1.27a2.12 2.12 0 0 0-1.42-.53c-.53 0-1.04.19-1.41.53-.38.33-.59.8-.59 1.27v2.4h4Zm2 0h3.34v-2.4c0-.37-.13-.73-.37-1.04a2 2 0 0 0-.96-.65c-.38-.13-.8-.14-1.2-.05-.4.1-.75.3-1.01.6.13.35.2.74.2 1.14v2.4Zm2.02 13.8c0 .64.28 1.25.78 1.7.5.45 1.17.7 1.88.7.7 0 1.38-.25 1.88-.7.5-.45.78-1.06.78-1.7v-12h-5.32v12Z" fill="#8D8D8D"/></svg>