<svg viewBox="0 0 24 24" fill="none" xmlns="http://www.w3.org/2000/svg"><g clip-path="url(#a)" fill="#8D8D8D"><path d="M18.04 20c-1.09 0-1.97.9-1.97 2s.88 2 1.97 2c1.08 0 1.96-.9 1.96-2s-.88-2-1.96-2Zm-7.08 0c-1.08 0-1.96.9-1.96 2s.88 2 1.96 2c1.09 0 1.97-.9 1.97-2s-.88-2-1.97-2Z"/><path fill-rule="evenodd" clip-rule="evenodd" d="M18.04 21a.98.98 0 0 0-.97 1c0 .57.45 1 .97 1 .51 0 .96-.43.96-1 0-.57-.45-1-.96-1Zm-7.08 0a.98.98 0 0 0-.96 1c0 .57.45 1 .96 1 .52 0 .97-.43.97-1 0-.57-.45-1-.97-1Zm5.11 1c0-1.1.88-2 1.97-2 1.08 0 1.96.9 1.96 2s-.88 2-1.96 2c-1.09 0-1.97-.9-1.97-2Zm-7.07 0c0-1.1.88-2 1.96-2 1.09 0 1.97.9 1.97 2s-.88 2-1.97 2c-1.08 0-1.96-.9-1.96-2Zm-9-21a1 1 0 0 1 1-1h4.68a1 1 0 0 1 .97.74l1.29 4.88h15.06a1 1 0 0 1 .94 1.34l-3.74 10.3a1 1 0 0 1-.94.65h-9.37a1 1 0 0 1-.96-.74l-4.02-15.17h-3.91a1 1 0 0 1-1-1Zm8.47 6.62 2.2 8.3h7.88l3.02-8.3h-13.1Z"/></g><defs><clipPath id="a"><path fill="#fff" d="M0 0h24v24h-24z"/></clipPath></defs></svg>