<svg viewBox="0 0 19 18" fill="none" xmlns="http://www.w3.org/2000/svg"><path d="M12.99 0c-.73 0-1.47.16-2.2.48l-.03.01-.03.02a5.5 5.5 0 0 0-1.26.95 5.3 5.3 0 0 0-7.4.12l-.02.02-.02.02c-1.92 2.18-1.88 5.52-.73 8.17l.01.02.01.02c1.36 2.72 3.9 5.03 6.2 6.93l.01.01c.15.12.4.36.7.6.3.24.63.5 1.11.6l.11.03.11-.01c.51-.05.71-.25 1.05-.48.34-.23.7-.52 1.1-.84.74-.63 1.52-1.35 2.04-1.86l.02-.03c1.08-1 2.15-2.15 3.06-3.5v-.01a9.1 9.1 0 0 0 1.31-7.72l-.01-.05-.02-.05a5.5 5.5 0 0 0-5.12-3.45Zm.02 1.72a3.82 3.82 0 0 1 3.62 2.42c.63 2.17.09 4.4-1.08 6.1a18.58 18.58 0 0 1-2.84 3.24l-.01.02-.02.01a26.94 26.94 0 0 1-2.92 2.53c-.1.07-.2.12-.27.15a2.43 2.43 0 0 1-.3-.2c-.22-.18-.45-.4-.7-.6l-.01-.02c-2.24-1.84-4.6-4.08-5.74-6.34-.92-2.13-.88-4.68.43-6.18a3.79 3.79 0 0 1 5.7.41l.64.85.62-.87c.35-.5.78-.88 1.3-1.17a4.36 4.36 0 0 1 1.58-.35Z" fill="#8D8D8D"/></svg>