<svg viewBox="0 0 24 24" fill="none" xmlns="http://www.w3.org/2000/svg"><path fill-rule="evenodd" clip-rule="evenodd" d="M14.16 7.1a2.16 2.16 0 0 0-2.57-2.13c-.41.07-.85.35-1.2.8-.36.46-.55 1-.55 1.48v1c0 .47.2 1.02.54 1.47.36.46.8.74 1.21.82 1.38.24 2.57-.8 2.57-2.13v-1.32Zm-2.97-4.38a4.45 4.45 0 0 1 5.26 4.37v1.32a4.45 4.45 0 0 1-5.27 4.37 4.77 4.77 0 0 1-3.63-4.53v-1c0-1.04.4-2.07 1.02-2.87a4.3 4.3 0 0 1 2.62-1.66Z" fill="#8D8D8D"/><path fill-rule="evenodd" clip-rule="evenodd" d="M12 2.29a9.71 9.71 0 1 0 0 19.42 9.71 9.71 0 0 0 0-19.42Zm-12 9.71a12 12 0 1 1 24 0 12 12 0 0 1-24 0Z" fill="#8D8D8D"/><path fill-rule="evenodd" clip-rule="evenodd" d="M12 16.45a6.9 6.9 0 0 0-6.36 3.95 1.14 1.14 0 0 1-2.09-.92 9.19 9.19 0 0 1 8.45-5.32 9.19 9.19 0 0 1 8.45 5.32 1.14 1.14 0 1 1-2.1.92 6.9 6.9 0 0 0-6.35-3.95Z" fill="#8D8D8D"/></svg>