<svg viewBox="0 0 148 14" fill="none" xmlns="http://www.w3.org/2000/svg"><path d="M5 2.94c-.56 0-1.11.08-1.65.24-.55.15-1.08.34-1.6.56l-.84-2.12a10.62 10.62 0 0 1 4.14-.87c.92 0 1.73.14 2.43.43.72.28 1.32.7 1.81 1.25.5.55.88 1.22 1.13 2.02.27.79.4 1.69.4 2.7 0 1.27-.21 2.39-.64 3.35a4.86 4.86 0 0 1-1.98 2.22 6.5 6.5 0 0 1-3.4.79 10.33 10.33 0 0 1-3.67-.64v-2.21c.67.2 1.28.37 1.83.48.57.12 1.13.18 1.69.18.53 0 1-.07 1.4-.2a2.62 2.62 0 0 0 1.73-1.58c.16-.4.25-.87.28-1.39h-5.4v-2.15h5.38c-.01-.49-.1-.92-.24-1.29a2.64 2.64 0 0 0-1.59-1.56 3.3 3.3 0 0 0-1.21-.21Zm19.7 10.4h-2.62v-10.23h-3.04a2271.74 2271.74 0 0 0-.73 5.48l-.28 1.51a7.63 7.63 0 0 1-.61 1.84c-.24.51-.59.9-1.03 1.17-.42.26-.99.4-1.68.4a4.01 4.01 0 0 1-1.25-.2v-2.15l.43.12c.15.04.31.05.49.05.23 0 .42-.07.57-.22.15-.15.29-.4.4-.77a26.95 26.95 0 0 0 .56-2.71 347.95 347.95 0 0 0 .95-6.71h7.84v12.41Zm12.1 0h-7.14v-12.42h7.15v2.16h-4.52v2.73h4.2v2.15h-4.2v3.2h4.52v2.17Zm14.53 0h-2.99l-4.5-6.3v6.3h-2.62v-12.42h2.62v6.02l4.45-6.02h2.8l-4.52 5.96 4.76 6.45Zm8.17 0h-2.62v-10.23h-3.37v-2.19h9.37v2.19h-3.38v10.22Zm11.08-12.42c1.6 0 2.76.35 3.5 1.04a3.66 3.66 0 0 1 1.1 2.84 4.8 4.8 0 0 1-.24 1.56c-.16.49-.43.93-.81 1.32a3.8 3.8 0 0 1-1.48.9 6.8 6.8 0 0 1-2.28.34h-1.13v4.41h-2.62v-12.41h3.96Zm-.14 2.16h-1.2v3.68h.87c.5 0 .93-.06 1.29-.19s.63-.33.83-.6c.2-.29.3-.65.3-1.09 0-.61-.17-1.06-.5-1.35-.34-.3-.87-.45-1.59-.45Zm20.18 4.03c0 .96-.12 1.84-.36 2.62-.23.78-.6 1.45-1.08 2.02a4.5 4.5 0 0 1-1.84 1.3c-.74.3-1.62.46-2.63.46-1 0-1.89-.15-2.64-.45a4.97 4.97 0 0 1-1.84-1.3 5.79 5.79 0 0 1-1.08-2.04 9.29 9.29 0 0 1-.35-2.63c0-1.28.21-2.4.63-3.35a4.82 4.82 0 0 1 1.95-2.21c.88-.53 2-.8 3.35-.8s2.45.27 3.32.8a4.7 4.7 0 0 1 1.93 2.22c.43.95.64 2.07.64 3.36Zm-9.05 0c0 .87.1 1.62.33 2.24a3 3 0 0 0 1.02 1.45c.47.33 1.06.5 1.8.5.75 0 1.35-.17 1.8-.5.47-.34.8-.82 1.01-1.45.22-.62.33-1.37.33-2.24 0-1.31-.24-2.34-.73-3.08-.49-.74-1.29-1.11-2.4-1.11a3 3 0 0 0-1.8.5 2.9 2.9 0 0 0-1.03 1.45 6.78 6.78 0 0 0-.33 2.24Zm18.72-4.17a2.73 2.73 0 0 0-2.31 1.15c-.27.35-.47.8-.61 1.32a7.4 7.4 0 0 0-.2 1.75c0 .88.11 1.64.32 2.26.22.62.56 1.09 1.03 1.41.46.32 1.05.49 1.77.49.51 0 1.01-.06 1.51-.18.51-.11 1.06-.28 1.65-.48v2.2a8.86 8.86 0 0 1-3.4.65 5.87 5.87 0 0 1-3.17-.79 4.74 4.74 0 0 1-1.82-2.22 8.8 8.8 0 0 1-.6-3.36c0-.93.13-1.8.39-2.57a5.1 5.1 0 0 1 2.94-3.36 7.18 7.18 0 0 1 4.35-.23c.62.16 1.22.37 1.78.64l-.85 2.13c-.46-.22-.93-.4-1.4-.57a4.14 4.14 0 0 0-1.38-.24Zm7.63-2.02h2.36v6a29.42 29.42 0 0 1-.05 2.03 84.02 84.02 0 0 1-.07 1.4h.05l5.74-9.43h3.15v12.41h-2.35v-5.96c0-.31 0-.65.02-1.03 0-.38.02-.74.03-1.1l.05-.9c.03-.26.04-.44.06-.52h-.07l-5.76 9.51h-3.16v-12.41Zm20.92 12.41h-2.63v-10.22h-3.37v-2.19h9.37v2.19h-3.37v10.22Zm7.1-12.41h2.37v6l-.01.97-.04 1.06a84.02 84.02 0 0 1-.07 1.4h.05l5.74-9.43h3.15v12.41h-2.35v-5.96c0-.31 0-.65.02-1.03l.03-1.1c.03-.34.04-.64.05-.9l.06-.52h-.07l-5.76 9.51h-3.16v-12.41Z" fill="#E11C4B"/></svg>