<svg viewBox="0 0 20 12" fill="none" xmlns="http://www.w3.org/2000/svg"><path d="m4.38 8.22-3.17 2.85c-.12-.22-.2-.5-.2-.82v-9.34l5.73 5.18m6.18.3 6.08-5.5v9.36c0 .3-.07.58-.2.8l-4.42-3.96m-13.14-6.33-.03-.01m5.53 5.34 1.61 1.45.26.2c.88.64 1.9.64 2.77 0l.25-.2 1.62-1.46" stroke="#8D8D8D" stroke-miterlimit="10" stroke-linecap="round" stroke-linejoin="round"/><path d="m14.35 7.07 4.45 3.98c-.15.27-.38.45-.64.45h-16.3c-.26 0-.5-.17-.65-.43l4.35-3.92" stroke="#8D8D8D" stroke-miterlimit="10" stroke-linecap="round" stroke-linejoin="round"/><path d="M1.9 11.5s-1 .05-.9-1.58m13.97-9.42h3.41c.22 0 .42.12.57.32a.5.5 0 0 1 .05.07l-5.75 5.19-1.62 1.46-.25.2c-.87.64-1.9.64-2.77 0a2.15 2.15 0 0 1-.26-.2l-1.6-1.45-5.74-5.18.05-.07c.15-.21.35-.34.58-.34h13.33Z" stroke="#8D8D8D" stroke-miterlimit="10" stroke-linecap="round" stroke-linejoin="round"/></svg>