<svg viewBox="0 0 18 19" fill="none" xmlns="http://www.w3.org/2000/svg"><path d="M0 4.12c0-1.07.4-1.94 1.18-2.61a4.58 4.58 0 0 1 3.09-1.01c1.29 0 2.33.33 3.11 1a3.31 3.31 0 0 1 1.18 2.68v.87c0 1.08-.4 1.95-1.18 2.6-.78.66-1.81.99-3.09.99a4.73 4.73 0 0 1-3.11-.99 3.33 3.33 0 0 1-1.18-2.68v-.85Zm2.6.93c0 .48.15.86.46 1.16.32.29.73.43 1.23.43s.91-.14 1.2-.44c.3-.3.46-.7.46-1.2v-.88c0-.48-.15-.87-.45-1.17-.3-.3-.71-.44-1.23-.44-.5 0-.9.15-1.2.44-.32.3-.47.7-.47 1.22v.88Zm6.83 8.92c0-1.09.4-1.96 1.19-2.61.8-.67 1.82-1 3.09-1 1.28 0 2.31.33 3.1.99.8.64 1.19 1.54 1.19 2.69v.86c0 1.08-.39 1.95-1.16 2.61-.78.66-1.82.99-3.1.99-1.3 0-2.35-.33-3.13-1a3.3 3.3 0 0 1-1.18-2.64v-.9Zm2.6.93c0 .45.16.82.48 1.14.33.3.74.46 1.22.46 1.1 0 1.66-.54 1.66-1.62v-.91c0-.48-.16-.87-.46-1.16-.31-.3-.72-.44-1.22-.44s-.92.15-1.22.44c-.3.3-.46.69-.46 1.2v.9Zm-6.96 2.05-1.91-.91 9.63-13.69 1.9.92-9.62 13.68Z" fill="#E11C4B"/></svg>