<svg viewBox="0 0 18 18" fill="none" xmlns="http://www.w3.org/2000/svg"><path d="M16.18 5.14c.1-.35 0-.6-.5-.6h-1.64a.71.71 0 0 0-.71.46s-.84 2.04-2.02 3.36c-.39.39-.56.5-.77.5-.1 0-.25-.11-.25-.46v-3.26c0-.42-.13-.6-.47-.6h-2.59c-.26 0-.42.19-.42.37 0 .4.6.5.66 1.6v2.43c0 .53-.1.63-.3.63-.57 0-1.92-2.05-2.73-4.4-.15-.45-.31-.63-.73-.63h-1.65c-.47 0-.56.22-.56.46 0 .44.56 2.6 2.6 5.46 1.35 1.95 3.27 3 5.01 3 1.05 0 1.17-.23 1.17-.64v-1.47c0-.47.1-.56.44-.56.24 0 .66.12 1.63 1.06 1.12 1.11 1.3 1.61 1.93 1.61h1.64c.47 0 .7-.23.57-.7a7.04 7.04 0 0 0-1.39-1.92c-.38-.46-.95-.94-1.13-1.19-.24-.31-.17-.45 0-.73 0 0 2-2.82 2.21-3.78Z" fill="#8D8D8D"/></svg>